
<svg version="1.1" id="Layer_1" xmlns="http://www.w3.org/2000/svg" xmlns:xlink="http://www.w3.org/1999/xlink" viewBox="0 0 504 504"
	 enable-background="new 0 0 504 504" xml:space="preserve">
	<g>
		<polyline fill="none" stroke="#231F20" stroke-miterlimit="10" points="386.1,249.8 387.1,251.5 386.1,253.3 						"/>
		<line fill="none" stroke="#231F20" stroke-miterlimit="10" stroke-dasharray="3.9672,1.9836" x1="385.1" y1="255" x2="321.7" y2="361.5"/>
		<polyline fill="none" stroke="#231F20" stroke-miterlimit="10" points="321.1,362.3 320.1,364 318.1,364 						"/>
		<line fill="none" stroke="#231F20" stroke-miterlimit="10" stroke-dasharray="3.9401,1.9701" x1="316.2" y1="364" x2="187.1" y2="364"/>
		<polyline fill="none" stroke="#231F20" stroke-miterlimit="10" points="186.1,364 184.1,364 183.1,362.3 						"/>
		<line fill="none" stroke="#231F20" stroke-miterlimit="10" stroke-dasharray="3.9672,1.9836" x1="182.1" y1="360.6" x2="118.7" y2="254.1"/>
		<polyline fill="none" stroke="#231F20" stroke-miterlimit="10" points="118.2,253.3 117.1,251.5 118.2,249.8 						"/>
		<line fill="none" stroke="#231F20" stroke-miterlimit="10" stroke-dasharray="3.9672,1.9836" x1="119.2" y1="248.1" x2="182.6" y2="141.6"/>
		<polyline fill="none" stroke="#231F20" stroke-miterlimit="10" points="183.1,140.7 184.1,139 186.1,139 						"/>
		<line fill="none" stroke="#231F20" stroke-miterlimit="10" stroke-dasharray="3.9401,1.9701" x1="188.1" y1="139" x2="317.1" y2="139"/>
		<polyline fill="none" stroke="#231F20" stroke-miterlimit="10" points="318.1,139 320.1,139 321.1,140.7 						"/>
		<line fill="none" stroke="#231F20" stroke-miterlimit="10" stroke-dasharray="3.9672,1.9836" x1="322.2" y1="142.4" x2="385.6" y2="249"/>
	</g>
</svg>
