<svg version="1.1" id="Layer_1" xmlns="http://www.w3.org/2000/svg" xmlns:xlink="http://www.w3.org/1999/xlink" x="0px" y="0px"
     viewBox="0 0 1170 320" style="enable-background:new 0 0 1170 320;" xml:space="preserve">
<style type="text/css">
    .st0{fill:#FFFFFF;}
</style>
<g id="XMLID_1_">
    <path id="XMLID_18_" class="st0" d="M585,1.5l26,29.2l0.3,0.3h0.4H1166c1.6,0,3,1.3,3,3v282c0,1.6-1.3,3-3,3H4c-1.6,0-3-1.3-3-3V34
        c0-1.6,1.3-3,3-3h553.4h0.4l0.3-0.3L585,1.5 M585,0l-27.6,30H4c-2.2,0-4,1.8-4,4v282c0,2.2,1.8,4,4,4h1162c2.2,0,4-1.8,4-4V34
        c0-2.2-1.8-4-4-4H611.7L585,0L585,0z"/>
</g>
</svg>