<?xml version="1.0" encoding="utf-8"?>
<!-- Generator: Adobe Illustrator 19.0.0, SVG Export Plug-In . SVG Version: 6.00 Build 0)  -->
<svg version="1.1" id="Layer_1" xmlns="http://www.w3.org/2000/svg" xmlns:xlink="http://www.w3.org/1999/xlink" x="0px" y="0px" viewBox="0 0 1920 110" style="enable-background:new 0 0 1920 110;" xml:space="preserve">
	<polygon id="XMLID_7_" points="-0.9,91 5.7,95.4 11.9,90.4 18.5,94.8 24.7,89.8 31.4,94.2 37.5,89.2 44.2,93.6 50.3,88.6 57,93 63.1,88 69.8,92.4 75.9,87.4 82.6,91.8 88.8,86.8 95.4,91.2 101.6,86.2 108.2,90.6 114.4,85.6 121,90 127.2,85 133.8,89.4 140,84.4 146.6,88.8 152.8,83.7 159.4,88.2 165.6,83.1 172.2,87.5 178.4,82.5 185,86.9 191.2,81.9 197.8,86.3 204,81.3 210.6,85.7 216.8,80.7 223.4,85.1 229.6,80.1 236.2,84.5 242.4,79.5 249,83.9 255.2,78.9 261.8,83.3 268,78.3 274.6,82.7 280.8,77.7 287.4,82.1 293.6,77.1 300.2,81.5 306.4,76.5 313.1,80.9 319.2,75.9 325.9,80.3 332,75.3 338.7,79.7 344.8,74.7 351.5,79.1 357.6,74 364.3,78.4 370.4,73.4 377.1,77.8 383.3,72.8 389.9,77.2 396.1,72.2 402.7,76.6 408.9,71.6 415.5,76 421.7,71 428.3,75.4 434.5,70.4 441.1,74.8 447.3,69.8 453.9,74.2 460.1,69.2 466.7,73.6 472.9,68.6 479.5,73 485.7,68 492.3,72.4 498.5,67.4 505.1,71.8 511.3,66.8 517.9,71.2 524.1,66.2 530.7,70.6 536.9,65.6 543.5,70 549.7,64.9 556.3,69.4 562.5,64.3 569.1,68.7 575.3,63.7 581.9,68.1 588.1,63.1 594.7,67.5 600.9,62.5 607.5,66.9 613.7,61.9 620.3,66.3 626.5,61.3 633.1,65.7 639.3,60.7 645.9,65.1 652.1,60.1 658.7,64.5 664.9,59.5 671.6,63.9 677.7,58.9 684.4,63.3 690.5,58.3 697.2,62.7 703.3,57.7 710,62.1 716.2,57.1 722.8,61.5 729,56.5 735.6,60.9 741.8,55.8 748.4,60.3 754.6,55.2 761.2,59.6 767.4,54.6 774,59 780.2,54 786.8,58.4 793,53.4 799.6,57.8 805.8,52.8 812.4,57.2 818.6,52.2 825.2,56.6 831.4,51.6 838,56 844.2,51 850.8,55.4 857,50.4 863.6,54.8 869.8,49.8 876.4,54.2 882.6,49.2 889.2,53.6 895.4,48.6 902,53 908.2,48 914.8,52.4 921,47.4 927.6,51.8 933.8,46.8 940.5,51.2 946.6,46.1 953.3,50.5 959.4,45.5 966.1,49.9 972.2,44.9 978.9,49.3 985,44.3 991.7,48.7 997.8,43.7 1004.5,48.1 1010.7,43.1 1017.3,47.5 1023.5,42.5 1030.1,46.9 1036.3,41.9 1042.9,46.3 1049.1,41.3 1055.7,45.7 1061.9,40.7 1068.5,45.1 1074.7,40.1 1081.3,44.5 1087.5,39.5 1094.1,43.9 1100.3,38.9 1106.9,43.3 1113.1,38.3 1119.7,42.7 1125.9,37.7 1132.5,42.1 1138.7,37 1145.3,41.5 1151.5,36.4 1158.1,40.8 1164.3,35.8 1170.9,40.2 1177.1,35.2 1183.7,39.6 1189.9,34.6 1196.5,39 1202.7,34 1209.3,38.4 1215.5,33.4 1222.1,37.8 1228.3,32.8 1234.9,37.2 1241.1,32.2 1247.7,36.6 1253.9,31.6 1260.5,36 1266.7,31 1273.3,35.4 1279.5,30.4 1286.1,34.8 1292.2,29.7 1298.8,34.1 1305,29.1 1311.6,33.5 1317.8,28.5 1324.4,32.9 1330.6,27.9 1337.2,32.3 1343.4,27.3 1350,31.7 1356.2,26.7 1362.8,31.1 1369,26.1 1375.7,30.5 1381.8,25.5 1388.5,29.9 1394.6,24.9 1401.3,29.3 1407.4,24.3 1414.1,28.7 1420.2,23.7 1426.9,28.1 1433.1,23 1439.7,27.4 1445.9,22.4 1452.5,26.8 1458.7,21.8 1465.3,26.2 1471.5,21.2 1478.1,25.6 1484.3,20.6 1490.9,25 1497.1,20 1503.7,24.4 1509.9,19.4 1516.5,23.8 1522.7,18.8 1529.3,23.2 1535.5,18.2 1542.1,22.6 1548.3,17.6 1554.9,22 1561.1,17 1567.7,21.4 1573.9,16.4 1580.5,20.8 1586.7,15.8 1593.3,20.2 1599.5,15.2 1606.1,19.6 1612.3,14.6 1618.9,19 1625.1,13.9 1631.7,18.3 1637.9,13.3 1644.5,17.7 1650.7,12.7 1657.3,17.1 1663.5,12.1 1670.1,16.5 1676.3,11.5 1682.9,15.9 1689.1,10.9 1695.8,15.3 1701.9,10.3 1708.6,14.7 1714.7,9.7 1721.4,14.1 1727.5,9.1 1734.2,13.5 1740.3,8.5 1747,12.9 1753.1,7.9 1759.8,12.3 1765.9,7.3 1772.6,11.7 1778.7,6.7 1785.4,11.1 1791.6,6.1 1798.2,10.5 1804.4,5.5 1811,9.9 1817.2,4.8 1823.8,9.3 1830,4.2 1836.6,8.6 1842.8,3.6 1849.4,8 1855.6,3 1862.2,7.4 1868.4,2.4 1875,6.8 1881.2,1.8 1887.8,6.2 1894,1.2 1900.6,5.6 1906.8,0.6 1913.4,5 1919.6,0 1919.6,110 -0.4,110 "/>
</svg>
