<svg version="1.1" id="Layer_1" xmlns="http://www.w3.org/2000/svg" xmlns:xlink="http://www.w3.org/1999/xlink" x="0px" y="0px" viewBox="0 0 1920 110" style="enable-background:new 0 0 1920 110;" xml:space="preserve">
	<polygon id="XMLID_7_" points="1920.5,19 1913.8,14.6 1907.7,19.6 1901,15.2 1894.9,20.2 1888.2,15.8 1882,20.8 1875.4,16.4 1869.2,21.4 1862.6,17 1856.4,22 1849.8,17.6 1843.6,22.6 1837,18.2 1830.8,23.2 1824.2,18.8 1818,23.8 1811.4,19.4 1805.2,24.4 1798.6,20 1792.4,25 1785.8,20.6 1779.6,25.6 1773,21.2 1766.8,26.2 1760.2,21.8 1754,26.9 1747.4,22.4 1741.2,27.5 1734.6,23.1 1728.4,28.1 1721.8,23.7 1715.6,28.7 1709,24.3 1702.8,29.3 1696.1,24.9 1690,29.9 1683.3,25.5 1677.2,30.5 1670.5,26.1 	1664.4,31.1 1657.7,26.7 1651.6,31.7 1644.9,27.3 1638.8,32.3 1632.1,27.9 1626,32.9 1619.3,28.5 1613.2,33.5 1606.5,29.1 1600.3,34.1 1593.7,29.7 1587.5,34.7 1580.9,30.3 1574.7,35.3 1568.1,30.9 1561.9,36 1555.3,31.5 1549.1,36.6 1542.5,32.2 1536.3,37.2 1529.7,32.8 1523.5,37.8 1516.9,33.4 1510.7,38.4 1504.1,34 1497.9,39 1491.3,34.6 1485.1,39.6 1478.5,35.2 1472.3,40.2 1465.7,35.8 1459.5,40.8 1452.9,36.4 1446.7,41.4 1440.1,37 1433.9,42 1427.3,37.6 1421.1,42.6 1414.5,38.2 1408.3,43.2 1401.7,38.8 1395.5,43.8 1388.9,39.4 1382.7,44.4 1376.1,40 1369.9,45 1363.3,40.6 1357.1,45.7 1350.5,41.3 1344.3,46.3 1337.7,41.9 1331.5,46.9 1324.9,42.5 1318.7,47.5 1312.1,43.1 1305.9,48.1 1299.3,43.7 1293.1,48.7 1286.5,44.3 	1280.3,49.3 1273.6,44.9 1267.5,49.9 1260.8,45.5 1254.7,50.5 1248,46.1 1241.8,51.1 1235.2,46.7 1229,51.7 1222.4,47.3 	1216.2,52.3 1209.6,47.9 1203.4,52.9 1196.8,48.5 1190.6,53.5 1184,49.1 1177.8,54.1 1171.2,49.7 1165,54.8 1158.4,50.3 	1152.2,55.4 1145.6,51 1139.4,56 1132.8,51.6 1126.6,56.6 1120,52.2 1113.8,57.2 1107.2,52.8 1101,57.8 1094.4,53.4 1088.2,58.4 	1081.6,54 1075.4,59 1068.7,54.6 1062.6,59.6 1055.9,55.2 1049.8,60.2 1043.1,55.8 1037,60.8 1030.3,56.4 1024.2,61.4 1017.5,57 	1011.4,62 1004.7,57.6 998.6,62.6 991.9,58.2 985.8,63.2 979.1,58.8 972.9,63.9 966.3,59.4 960.1,64.5 953.5,60.1 947.3,65.1 	940.7,60.7 934.5,65.7 927.9,61.3 921.7,66.3 915.1,61.9 908.9,66.9 902.3,62.5 896.1,67.5 889.5,63.1 883.3,68.1 876.7,63.7 	870.5,68.7 863.9,64.3 857.7,69.3 851.1,64.9 844.9,69.9 838.3,65.5 832.1,70.5 825.5,66.1 819.3,71.1 812.7,66.7 806.5,71.7 	799.9,67.3 793.7,72.3 787.1,67.9 780.9,72.9 774.3,68.5 768.1,73.6 761.5,69.2 755.3,74.2 748.7,69.8 742.5,74.8 735.9,70.4 	729.7,75.4 723.1,71 716.9,76 710.3,71.6 704.1,76.6 697.5,72.2 691.3,77.2 684.7,72.8 678.5,77.8 671.8,73.4 665.7,78.4 659,74 	652.9,79 646.2,74.6 640.1,79.6 633.5,75.2 627.4,80.3 620.8,75.9 614.6,80.9 608,76.5 601.8,81.5 595.2,77.1 589,82.1 582.3,77.7 	576.2,82.7 569.5,78.3 563.4,83.3 556.7,78.9 550.6,83.9 543.9,79.5 537.7,84.5 531.1,80.1 524.9,85.1 518.3,80.7 512.1,85.7 	505.5,81.3 499.3,86.3 492.7,81.9 486.5,87 479.9,82.5 473.7,87.6 467.1,83.2 460.9,88.2 454.3,83.8 448.1,88.8 441.5,84.4 	435.3,89.4 428.7,85 422.5,90 415.9,85.6 409.7,90.6 403.1,86.2 396.9,91.2 390.3,86.8 384.1,91.8 377.5,87.4 371.3,92.4 364.7,88 	358.5,93 351.9,88.6 345.7,93.6 339.1,89.2 332.9,94.2 326.3,89.8 320.1,94.8 313.5,90.4 307.3,95.4 300.6,91 294.5,96.1 	287.8,91.6 281.7,96.7 275,92.3 268.9,97.3 262.2,92.9 256.1,97.9 249.4,93.5 243.3,98.5 236.6,94.1 230.5,99.1 223.8,94.7 	217.6,99.7 211,95.3 204.8,100.3 198.2,95.9 192,100.9 185.4,96.5 179.2,101.5 172.6,97.1 166.4,102.1 159.8,97.7 153.6,102.7 	147,98.3 140.8,103.3 134.2,98.9 128,103.9 121.4,99.5 115.2,104.5 108.6,100.1 102.4,105.1 95.8,100.7 89.6,105.8 83,101.4 	76.8,106.4 70.2,102 64,107 57.4,102.6 51.2,107.6 44.6,103.2 38.4,108.2 31.8,103.8 25.6,108.8 19,104.4 12.8,109.4 6.2,105 0,110 	0,0 1920,0 "/>
</svg>
